<svg width="40" height="40" viewBox="0 0 40 40" fill="none" xmlns="http://www.w3.org/2000/svg">
<path id="Vector" d="M6.82237 40H33.1775C37.7403 40 39.9999 37.7403 39.9999 33.2644V6.73546C39.9999 2.25964 37.7403 0 33.1775 0H6.82237C2.28137 0 0 2.23791 0 6.73546V33.2644C0 37.762 2.28137 40 6.82237 40ZM20.0109 29.158C11.472 29.158 5.36664 22.1619 5.36664 19.9891C5.36664 17.7946 11.4068 10.7985 20.0109 10.7985C28.6148 10.7985 34.6333 17.7946 34.6333 19.9891C34.6333 22.1619 28.6365 29.158 20.0109 29.158ZM20.0109 25.9859C23.335 25.9859 26.0293 23.2482 26.0293 19.9891C26.0293 16.6214 23.335 13.9706 20.0109 13.9706C16.6648 13.9706 13.9706 16.6214 13.9924 19.9891C13.9924 23.2482 16.6648 25.9859 20.0109 25.9859ZM20.0543 22.6182C18.5985 22.6182 17.3601 21.3797 17.3601 19.9891C17.3601 18.5769 18.5985 17.3384 20.0543 17.3384C21.4448 17.3384 22.6616 18.5769 22.6616 19.9891C22.6616 21.3797 21.4448 22.6182 20.0543 22.6182Z" fill="#007AFF"/>
</svg>
